# xmcd
#
# Track frame offsets: 
#        150
#        13340
#        25470
#        38737
#        50940
#        63240
#        77880
#        89957
#        101075
#        112440
#        123420
#        139492
#        150942
#        169477
#        182195
#        193097
#        206315
#        222995
#        250530
#
# Disc length: 3564 seconds
#
# Revision: 1
# Processed by: cddbd v1.5.2PL0 Copyright (c) Steve Scherf et al.
# Submitted via: ExactAudioCopyFreeDBPlugin 1.0
#
DISCID=260dea13
DTITLE=Waylon Jennings - This Time, The Ramblin' Man, Dreaming My Drea
DTITLE=ms [CD2)
DYEAR=2002
DGENRE=Country
TTITLE0=Are You Sure Hank Done It This Way
TTITLE1=Waymore's Blues
TTITLE2=I Recall A Gypsy Woman
TTITLE3=High Time
TTITLE4=I've Been A Long Time Leaving
TTITLE5=Let's All Help The Cowboys
TTITLE6=The Door Is Always Open
TTITLE7=Let's Turn Back The Years
TTITLE8=She's Looking Good
TTITLE9=Dreaming My Dreams With You
TTITLE10=Bob Wills Is Still The King
TTITLE11=Got A Lot Going For Me
TTITLE12=Last Letter
TTITLE13=One I Sing My Love Song To
TTITLE14=That'll Be The Day
TTITLE15=It Doesn't Matter Anymore
TTITLE16=Lady In The Harbor
TTITLE17=Medley Well Alright It's So Easy Maybe Baby Peggy Sue
TTITLE18=If You're Goin' Girl
EXTD=YEAR: 2002 ID3G: 2
EXTT0=
EXTT1=
EXTT2=
EXTT3=
EXTT4=
EXTT5=
EXTT6=
EXTT7=
EXTT8=
EXTT9=
EXTT10=
EXTT11=
EXTT12=
EXTT13=
EXTT14=
EXTT15=
EXTT16=
EXTT17=
EXTT18=
PLAYORDER=
